{"title":"Mean Streets (dvdripmp4)","uid":7740092,"size":1572867533,"categoryP":"video","categoryS":"movies","magnet":"?xt=urn:btih:336c51b35823edb8c02c25331f7240dd203cdacd&amp;dn=Mean+Streets+%28dvdripmp4%29&amp;tr=udp%3A%2F%2Ftracker.openbittorrent.com%3A80&amp;tr=udp%3A%2F%2Fopen.demonii.com%3A1337&amp;tr=udp%3A%2F%2Ftracker.coppersurfer.tk%3A6969&amp;tr=udp%3A%2F%2Fexodus.desync.com%3A6969","seeders":1,"leechers":0,"uploader":"russell887","files":1,"time":1350603050,"description":"The future is set for Tony and Michael - owning a neighbour- hood bar and making deals in the mean streets of New York city's Little Italy. For Charlie, the future is less clearly defined. A small-time hood, he works for his uncle, making collections and reclaiming bad debts. He's probably too nice to succeed. In love with a woman his uncle disapproves of (because of her epilepsy) and a friend of her cousin, Johnny Boy, a near psychotic whose trouble-making threatens them all - he can't reconcile opposing values. A failed attempt to escape (to Brooklyn) moves them all a step closer to a bitter, almost preordained future.   \n\nCAST: \nRobert De Niro- Johnny Boy  \nDavid Proval- Tony  \nRichard Romanus- Michael  \nHarvey Keitel- Charlie  \nAmy Robinson- Teresa  \nCesare Danova- Giovanni     \n\nIMDb-  &lt;a href=&quot; http://www.imdb.com/title/tt0070379/&quot; rel=&quot;nofollow&quot; target=&quot;_NEW&quot;&gt; http://www.imdb.com/title/tt0070379/&lt;/a&gt;     \n\nINFO:  \nFormat                                   : MPEG-4\nFormat profile                           : Base Media\nCodec ID                                 : isom\nFile size                                : 1.46 GiB\nDuration                                 : 1h 51mn\nOverall bit rate mode                    : Variable\nOverall bit rate                         : 1 875 Kbps\nWriting application                      : Lavf52.104.0\n\nVideo\nID                                       : 1\nFormat                                   : MPEG-4 Visual\nFormat profile                           : Simple@L3\nFormat settings, BVOP                    : No\nFormat settings, QPel                    : No\nFormat settings, GMC                     : No warppoints\nFormat settings, Matrix                  : Default (H.263)\nCodec ID                                 : 20\nDuration                                 : 1h 51mn\nBit rate                                 : 1 773 Kbps\nWidth                                    : 720 pixels\nHeight                                   : 480 pixels\nDisplay aspect ratio                     : 16:9\nOriginal display aspect ratio            : 16:9\nFrame rate mode                          : Constant\nFrame rate                               : 29.970 fps\nStandard                                 : NTSC\nColor space                              : YUV\nChroma subsampling                       : 4:2:0\nBit depth                                : 8 bits\nScan type                                : Progressive\nCompression mode                         : Lossy\nBits/(Pixel*Frame)                       : 0.171\nStream size                              : 1.39 GiB (95%)\nWriting library                          : XviD 1.2.1 (UTC 2008-12-04)\n\nAudio\nID                                       : 2\nFormat                                   : AAC\nFormat/Info                              : Advanced Audio Codec\nFormat profile                           : LC\nCodec ID                                 : 40\nDuration                                 : 1h 51mn\nBit rate mode                            : Variable\nBit rate                                 : 96.0 Kbps\nChannel(s)                               : 2 channels\nChannel positions                        : Front: L R\nSampling rate                            : 44.1 KHz\nCompression mode                         : Lossy\nStream size                              : 77.2 MiB (5%)\n\nSIZE: 1.46GB","torrent":{"xt":"urn:btih:336c51b35823edb8c02c25331f7240dd203cdacd","amp;dn":"Mean+Streets+%28dvdripmp4%29","amp;tr":["udp%3A%2F%2Ftracker.openbittorrent.com%3A80","udp%3A%2F%2Fopen.demonii.com%3A1337","udp%3A%2F%2Ftracker.coppersurfer.tk%3A6969","udp%3A%2F%2Fexodus.desync.com%3A6969"],"infoHash":"336c51b35823edb8c02c25331f7240dd203cdacd","infoHashBuffer":{"type":"Buffer","data":[51,108,81,179,88,35,237,184,192,44,37,51,31,114,64,221,32,60,218,205]},"announce":[],"urlList":[]}}